<?xml version="1.0" encoding="UTF-8"?>
<svg version="1.1" xmlns="http://www.w3.org/2000/svg" width="999" height="999">
<path d="M0 0 C1.293685 -0.00705963 2.58737 -0.01411926 3.92025757 -0.02139282 C8.07575035 -0.04093051 12.23118434 -0.046085 16.38671875 -0.046875 C17.09482822 -0.04716957 17.8029377 -0.04746414 18.53250504 -0.04776764 C39.52103291 -0.04917888 60.26439456 0.12079857 81.07421875 3.203125 C81.76424988 3.30258423 82.45428101 3.40204346 83.16522217 3.5045166 C139.76286293 11.66287671 194.02809208 27.89774226 244.93701172 54.10791016 C247.24830162 55.29233402 249.56945841 56.45615511 251.890625 57.62109375 C286.28678154 75.06537471 319.01907639 97.83747822 347.4921875 123.8671875 C349.59407229 125.76874137 351.71641947 127.63690538 353.85546875 129.49609375 C365.25061428 139.44869777 376.02137971 149.90139032 386.07421875 161.203125 C387.00390702 162.2120406 387.9362553 163.21851082 388.87109375 164.22265625 C394.87500067 170.6727925 400.60576465 177.29047976 406.07421875 184.203125 C406.58855469 184.85023438 407.10289062 185.49734375 407.6328125 186.1640625 C426.65281075 210.14770925 443.22118911 235.43714011 458.07421875 262.203125 C458.44208496 262.85764648 458.80995117 263.51216797 459.18896484 264.18652344 C495.42605254 328.7657576 517.00697375 407.8291268 517.27734375 482.12890625 C517.28440338 483.42259125 517.29146301 484.71627625 517.29873657 486.04916382 C517.31827426 490.2046566 517.32342875 494.36009059 517.32421875 498.515625 C517.32466061 499.57778921 517.32466061 499.57778921 517.32511139 500.66141129 C517.32652263 521.64993916 517.15654518 542.39330081 514.07421875 563.203125 C513.97475952 563.89315613 513.87530029 564.58318726 513.77282715 565.29412842 C505.61446704 621.89176918 489.37960149 676.15699833 463.16943359 727.06591797 C461.98500973 729.37720787 460.82118864 731.69836466 459.65625 734.01953125 C442.21196904 768.41568779 419.43986553 801.14798264 393.41015625 829.62109375 C391.50860238 831.72297854 389.64043837 833.84532572 387.78125 835.984375 C377.82864598 847.37952053 367.37595343 858.15028596 356.07421875 868.203125 C355.06530315 869.13281327 354.05883293 870.06516155 353.0546875 871 C346.60455125 877.00390692 339.98686399 882.7346709 333.07421875 888.203125 C332.42710937 888.71746094 331.78 889.23179687 331.11328125 889.76171875 C307.1296345 908.781717 281.84020364 925.35009536 255.07421875 940.203125 C254.41969727 940.57099121 253.76517578 940.93885742 253.09082031 941.31787109 C188.51158615 977.55495879 109.44821695 999.13588 35.1484375 999.40625 C33.8547525 999.41330963 32.5610675 999.42036926 31.22817993 999.42764282 C27.07268715 999.44718051 22.91725316 999.452335 18.76171875 999.453125 C18.05360928 999.45341957 17.3454998 999.45371414 16.61593246 999.45401764 C-4.37259541 999.45542888 -25.11595706 999.28545143 -45.92578125 996.203125 C-46.61581238 996.10366577 -47.30584351 996.00420654 -48.01678467 995.9017334 C-104.61442543 987.74337329 -158.87965458 971.50850774 -209.78857422 945.29833984 C-212.09986412 944.11391598 -214.42102091 942.95009489 -216.7421875 941.78515625 C-251.13834404 924.34087529 -283.87063889 901.56877178 -312.34375 875.5390625 C-314.44563479 873.63750863 -316.56798197 871.76934462 -318.70703125 869.91015625 C-330.10217678 859.95755223 -340.87294221 849.50485968 -350.92578125 838.203125 C-351.85546952 837.1942094 -352.7878178 836.18773918 -353.72265625 835.18359375 C-359.72656317 828.7334575 -365.45732715 822.11577024 -370.92578125 815.203125 C-371.44011719 814.55601562 -371.95445312 813.90890625 -372.484375 813.2421875 C-391.50437325 789.25854075 -408.07275161 763.96910989 -422.92578125 737.203125 C-423.29364746 736.54860352 -423.66151367 735.89408203 -424.04052734 735.21972656 C-460.27761504 670.6404924 -481.85853625 591.5771232 -482.12890625 517.27734375 C-482.13596588 515.98365875 -482.14302551 514.68997375 -482.15029907 513.35708618 C-482.16983676 509.2015934 -482.17499125 505.04615941 -482.17578125 500.890625 C-482.17607582 500.18251553 -482.17637039 499.47440605 -482.17667389 498.74483871 C-482.17808513 477.75631084 -482.00810768 457.01294919 -478.92578125 436.203125 C-478.82632202 435.51309387 -478.72686279 434.82306274 -478.62438965 434.11212158 C-470.46602954 377.51448082 -454.23116399 323.24925167 -428.02099609 272.34033203 C-426.83657223 270.02904213 -425.67275114 267.70788534 -424.5078125 265.38671875 C-407.06353154 230.99056221 -384.29142803 198.25826736 -358.26171875 169.78515625 C-356.36016488 167.68327146 -354.49200087 165.56092428 -352.6328125 163.421875 C-342.68020848 152.02672947 -332.22751593 141.25596404 -320.92578125 131.203125 C-319.91686565 130.27343673 -318.91039543 129.34108845 -317.90625 128.40625 C-311.45611375 122.40234308 -304.83842649 116.6715791 -297.92578125 111.203125 C-297.27867187 110.68878906 -296.6315625 110.17445312 -295.96484375 109.64453125 C-271.981197 90.624533 -246.69176614 74.05615464 -219.92578125 59.203125 C-219.27125977 58.83525879 -218.61673828 58.46739258 -217.94238281 58.08837891 C-153.36314865 21.85129121 -74.29977945 0.27037 0 0 Z " fill="#FEFEFE" transform="translate(481.92578125,-0.203125)"/>
<path d="M0 0 C7.7662947 6.27913188 14.11082707 13.623086 20.375 21.375 C23.6195076 25.38824111 26.9872668 29.22435954 30.5 33 C34.8099377 37.632511 38.8506094 42.4212195 42.8203125 47.3515625 C44.97757399 49.97275119 47.21311 52.49154281 49.5 55 C53.34191939 59.22013944 56.96115221 63.58027184 60.55078125 68.015625 C63.31810468 71.3876108 66.15139055 74.69672504 69 78 C73.38285788 83.08328623 77.66438788 88.2350342 81.88671875 93.453125 C84.67215622 96.81006628 87.60019374 100.02516012 90.56640625 103.22265625 C92 105 92 105 92 107 C92.66 106.67 93.32 106.34 94 106 C107.95917931 104.6819659 118.02154312 106.53019736 129.1953125 115.47265625 C136.41962898 121.98259046 142.47027681 132.50996048 143.16796875 142.375 C143.17441406 143.24125 143.18085938 144.1075 143.1875 145 C143.20039063 145.97582031 143.21328125 146.95164062 143.2265625 147.95703125 C143 151 143 151 142.0234375 153.82421875 C140.85526802 157.30498391 140.42978651 159.34113013 141 163 C144.47817377 168.44463731 149.44655714 172.80612445 154.12207031 177.20654297 C156.44352293 179.42357247 158.57456264 181.77215339 160.6875 184.1875 C164.08597487 187.99558389 167.53220852 191.755218 171 195.5 C175.26986837 200.1126361 179.49967245 204.75743215 183.69140625 209.44140625 C185.43808574 211.37723546 187.1950899 213.30029699 188.96484375 215.21484375 C189.46878662 215.76068115 189.97272949 216.30651855 190.49194336 216.86889648 C191.47910582 217.9366045 192.46813168 219.00259344 193.45922852 220.06665039 C196.88962674 223.77925349 196.88962674 223.77925349 198 226 C199.16015625 225.95359375 200.3203125 225.9071875 201.515625 225.859375 C215.02635189 225.47960776 226.22144207 227.11657313 237 236 C237.78327667 237.01031281 238.56655334 238.02062561 239.37356567 239.06155396 C243.09191004 242.76434688 246.60630367 242.73024299 251.67918396 242.8099823 C252.82645462 242.79776138 253.97372528 242.78554047 255.15576172 242.77294922 C256.98587044 242.78889381 256.98587044 242.78889381 258.85295105 242.80516052 C262.18583071 242.82839542 265.51670666 242.82527127 268.84950018 242.81029272 C272.33695556 242.80089551 275.82417182 242.82537901 279.31155396 242.84622192 C285.90944063 242.88053137 292.50698056 242.88450431 299.10493863 242.87749684 C306.61894553 242.87099962 314.13270956 242.89844519 321.64664435 242.92869925 C337.09780235 242.9901535 352.54871271 243.00912112 368 243 C368.29934952 242.22924637 368.59869904 241.45849274 368.90711975 240.66438293 C370.10741635 237.73812475 371.58770846 235.20484076 373.24609375 232.51171875 C373.90883301 231.42930908 374.57157227 230.34689941 375.25439453 229.23168945 C375.60906799 228.65601227 375.96374146 228.08033508 376.3291626 227.48721313 C378.2557032 224.35890544 380.16862582 221.22229066 382.08203125 218.0859375 C382.48379578 217.42783585 382.8855603 216.76973419 383.29949951 216.09169006 C387.8035381 208.70221336 392.21678101 201.25939531 396.625 193.8125 C398.23146863 191.10008131 399.83825745 188.38785253 401.4453125 185.67578125 C401.83455399 185.01883774 402.22379547 184.36189423 402.62483215 183.68504333 C406.81098961 176.6244106 411.03694042 169.58780396 415.27319336 162.55712891 C418.88684663 156.55111914 422.46177639 150.52429113 426.01171875 144.48046875 C427.31041155 142.27456389 428.60951179 140.06889942 429.90869141 137.86328125 C430.75385999 136.42530064 431.59683755 134.98602976 432.4375 133.54541016 C433.61310455 131.53096278 434.79606674 129.52100254 435.98046875 127.51171875 C436.50141365 126.61189522 436.50141365 126.61189522 437.03288269 125.69389343 C439.02032615 122.34036683 441.11700243 119.62621237 444 117 C447.69950928 124.08903777 450.90637388 131.32214547 453.95883179 138.71057129 C455.37222865 142.13063732 456.79822954 145.54545412 458.22265625 148.9609375 C458.52605423 149.68917725 458.82945221 150.41741699 459.14204407 151.16772461 C462.42921498 159.04849449 465.77703797 166.90322996 469.12539673 174.75814819 C477.4706586 194.33737032 485.70296175 213.96284255 493.90538025 233.6022644 C497.58541627 242.40915906 501.29129696 251.20514684 505 260 C505.66 260 506.32 260 507 260 C507.45246094 259.16984375 507.90492188 258.3396875 508.37109375 257.484375 C513.81726254 247.60543844 519.62747229 237.96231219 525.50509644 228.33679199 C529.91994545 221.10450407 534.29464284 213.85691671 538.5 206.5 C543.06415775 198.51539199 547.83257534 190.66114137 552.625 182.8125 C557.56862149 174.71532295 562.44958075 166.6014817 567.04492188 158.29980469 C570.39998051 152.24187967 573.9648813 146.32044512 577.55126953 140.3984375 C580.38595578 135.70548877 583.20181195 131.00120392 586.0211792 126.29904175 C587.69194015 123.51282434 589.3635882 120.72713952 591.03515625 117.94140625 C591.89185913 116.51356812 591.89185913 116.51356812 592.76586914 115.05688477 C593.17313232 114.37811279 593.58039551 113.69934082 594 113 C579.76980745 105.78683961 565.38562396 98.89600587 551 92 C551 91.34 551 90.68 551 90 C551.63574951 89.63463135 552.27149902 89.2692627 552.92651367 88.89282227 C574.37471372 76.55948646 595.80636186 64.18656245 616.9921875 51.40625 C622.56061826 48.05397796 628.15745973 44.74932464 633.75 41.4375 C634.32267609 41.0983255 634.89535217 40.759151 635.48538208 40.40969849 C639.04729374 38.30018534 642.60951833 36.19120107 646.17181396 34.08233643 C651.05423996 31.19180592 655.93614872 28.30040249 660.81774902 25.40847778 C662.50888743 24.40675662 664.20024099 23.40539872 665.89160156 22.40405273 C666.93928711 21.78344971 667.98697266 21.16284668 669.06640625 20.5234375 C670.56131592 19.63930176 670.56131592 19.63930176 672.08642578 18.73730469 C674.03974414 17.57258092 675.9860237 16.39597614 677.92529297 15.20800781 C678.82521973 14.65725586 679.72514648 14.10650391 680.65234375 13.5390625 C681.44503662 13.04873535 682.23772949 12.5584082 683.05444336 12.05322266 C685 11 685 11 687 11 C687.53664036 36.44500895 686.44149106 61.79069341 685.21435547 87.19824219 C685.07625463 90.06053523 684.93843124 92.92284149 684.80078125 95.78515625 C684.76651787 96.49581615 684.73225449 97.20647606 684.69695282 97.93867111 C683.93357503 113.82958358 683.35111063 129.72501513 682.8125 145.625 C682.76998108 146.87461517 682.72746216 148.12423035 682.68365479 149.41171265 C682.45090426 156.27431806 682.22243233 163.13705237 682 170 C678.61013381 168.76512279 675.9537503 167.41232266 673.13671875 165.1640625 C672.42193359 164.59969482 671.70714844 164.03532715 670.97070312 163.45385742 C670.21724609 162.85033447 669.46378906 162.24681152 668.6875 161.625 C667.08814448 160.3621344 665.48786387 159.1004396 663.88671875 157.83984375 C663.0776709 157.20159668 662.26862305 156.56334961 661.43505859 155.90576172 C657.65972587 152.95105476 653.83597073 150.06282176 650 147.1875 C649.32412842 146.67848145 648.64825684 146.16946289 647.9519043 145.64501953 C644.6119852 143.10922784 644.6119852 143.10922784 641 141 C640.62222412 142.03519775 640.62222412 142.03519775 640.23681641 143.09130859 C638.82342601 146.41525909 637.07012427 149.4528394 635.2109375 152.5390625 C634.83547287 153.16898102 634.46000824 153.79889954 634.07316589 154.44790649 C632.84373966 156.50892612 631.60936847 158.56693726 630.375 160.625 C629.5151624 162.06455101 628.65571051 163.50433247 627.79663086 164.94433594 C626.04496623 167.88003872 624.29176301 170.81481432 622.53759766 173.74902344 C618.86003059 179.90465254 615.21245356 186.07797553 611.5625 192.25 C605.60247262 202.31559507 599.604078 212.35741251 593.57470703 222.3815918 C593.05505371 223.2456665 592.53540039 224.10974121 592 225 C591.32952637 226.11479736 590.65905273 227.22959473 589.96826172 228.37817383 C585.00579291 236.63545651 580.08115655 244.91443106 575.17401123 253.2046814 C568.64020098 264.23980625 562.05449323 275.23995686 555.375 286.1875 C548.97849855 296.67476999 542.72029988 307.23639333 536.52612305 317.84423828 C529.174322 330.43302731 521.73643603 342.97000039 514.27363586 355.49325562 C511.90221338 359.47531766 509.54781672 363.46695629 507.203125 367.46484375 C506.11458342 369.30989588 505.02604176 371.15494797 503.9375 373 C503.21373169 374.24632202 503.21373169 374.24632202 502.4753418 375.51782227 C501.37217043 377.37910586 500.19466538 379.19607696 499 381 C498.34 381 497.68 381 497 381 C496.59099205 380.03066528 496.59099205 380.03066528 496.17372131 379.04174805 C489.47614844 363.17484476 482.73143252 347.32909137 475.94018555 331.50204468 C474.3911598 327.89200306 472.84293532 324.28161834 471.29492188 320.67114258 C467.28917168 311.3288915 463.28171688 301.98737179 459.27392578 292.64599609 C457.22376185 287.86746214 455.17411776 283.08870551 453.12478638 278.30981445 C452.04521339 275.79291 450.96489877 273.27632491 449.88452148 270.75976562 C449.21456331 269.19796714 448.54471992 267.63611941 447.875 266.07421875 C447.39867882 264.96395828 447.39867882 264.96395828 446.91273499 263.83126831 C445.17804273 259.77971096 443.46127091 255.72121793 441.76171875 251.65478516 C441.39385254 250.77554886 441.02598633 249.89631256 440.64697266 248.99043274 C439.93735487 247.2918211 439.22990998 245.59229966 438.52490234 243.89176941 C437.19527811 240.17870428 437.19527811 240.17870428 435 237 C434.6690332 237.59200195 434.33806641 238.18400391 433.99707031 238.79394531 C404.4676007 291.5323993 404.4676007 291.5323993 399 297 C397.6209963 297.10138953 396.2369602 297.13566789 394.85424805 297.1418457 C393.97210129 297.14888016 393.08995453 297.15591461 392.18107605 297.16316223 C390.73599419 297.16940865 390.73599419 297.16940865 389.26171875 297.17578125 C387.22329731 297.19900974 385.18488585 297.22312823 383.14648438 297.24804688 C379.93214544 297.28294025 376.71816598 297.31237067 373.50366211 297.32592773 C353.57938718 297.35078274 353.57938718 297.35078274 335.5 305.125 C331.0942623 307.95935792 331.0942623 307.95935792 328.84375 308.9296875 C326.48721011 310.29767887 326.10388656 311.53612521 325 314 C323.8145748 315.64178608 322.60327972 317.2650238 321.375 318.875 C313.29787188 329.90128322 307.55167675 341.79125122 302.18759155 354.29992676 C291.52906685 379.07950871 279.44066404 401.87535367 261.52197266 422.20629883 C260.42675972 423.49704786 259.36786 424.81892968 258.33349609 426.15893555 C250.39596441 436.32576904 241.03819982 445.14239598 231.875 454.1875 C229.29493333 456.73976944 226.71643153 459.29357234 224.14089966 461.85041809 C222.54874486 463.43050079 220.95392696 465.0079065 219.35592651 466.58207703 C218.62471588 467.30675674 217.89350525 468.03143646 217.14013672 468.77807617 C216.50776093 469.40219894 215.87538513 470.02632172 215.22384644 470.6693573 C213.30946454 472.67567398 211.49285854 474.72287232 209.68005371 476.81994629 C206.26499164 480.74629433 202.67778374 484.44491542 198.97900391 488.1027832 C198.31634521 488.76237534 197.65368652 489.42196747 196.97094727 490.10154724 C195.54744031 491.51795842 194.1228048 492.93323615 192.69713211 494.34746742 C190.44198805 496.58508703 188.19052155 498.82634804 185.94003296 501.06864929 C179.54648513 507.43784668 173.14718997 513.80124721 166.74365234 520.16040039 C162.81511315 524.06221394 158.89141276 527.96883894 154.97068405 531.87849998 C153.47738835 533.36558042 151.98219697 534.85075973 150.48509598 536.33400917 C148.40040039 538.39956532 146.32186689 540.47113764 144.24462891 542.54418945 C143.31274246 543.4629335 143.31274246 543.4629335 142.36203003 544.40023804 C139.00023348 547.75150949 139.00023348 547.75150949 137 552 C137.79664063 552.23589844 138.59328125 552.47179687 139.4140625 552.71484375 C143.02548865 554.00913482 146.34092832 555.57318877 149.77246094 557.27416992 C175.5630902 570.04125722 202.5253447 578.37536516 230.8125 583.375 C231.5323407 583.5026474 232.2521814 583.6302948 232.99383545 583.7618103 C247.77412859 586.35167163 262.19125102 587.18660256 277.17822266 587.18530273 C279.96663037 587.18747402 282.75463141 587.20564612 285.54296875 587.22460938 C297.81423917 587.26323898 309.82157057 586.48182614 322 585 C323.62494385 584.81280396 323.62494385 584.81280396 325.28271484 584.62182617 C351.3233705 581.40877871 377.19156073 572.84441489 401 562 C402.52294678 561.30753174 402.52294678 561.30753174 404.07666016 560.60107422 C417.48559347 554.44592098 430.5200887 547.88131637 443 540 C444.00160156 539.3709375 445.00320313 538.741875 446.03515625 538.09375 C465.61881402 525.37918814 483.27536142 510.86236726 499.8125 494.4375 C500.30109497 493.95435333 500.78968994 493.47120667 501.29309082 492.97341919 C507.99231531 486.32988529 514.13542907 479.39237132 520 472 C521.01279662 470.76850179 522.02804951 469.53901516 523.046875 468.3125 C535.18256345 453.51705488 545.63511995 437.67263852 555 421 C555.33805664 420.40896484 555.67611328 419.81792969 556.02441406 419.20898438 C579.01552085 378.88893016 596.02386189 327.22767495 596.0859375 280.65234375 C596.22847805 262.45466656 601.38098633 250.7867378 611.4691925 236.19195557 C615.72677089 230.02588637 619.48244452 223.59797604 623.25 217.125 C624.55598999 214.91199172 625.86326316 212.69974017 627.171875 210.48828125 C627.80416016 209.41658691 628.43644531 208.34489258 629.08789062 207.24072266 C631.02039227 203.96543833 632.95517063 200.69150898 634.890625 197.41796875 C637.92855461 192.27951405 640.96496143 187.14016278 644 182 C647.26501841 185.26501841 647.23844187 189.55559437 648 194 C648.165 194.87011719 648.33 195.74023438 648.5 196.63671875 C652.11897842 217.36102486 652.40877877 238.64444106 652.375 259.625 C652.37512085 260.79467316 652.3752417 261.96434631 652.37536621 263.16946411 C652.34762668 282.12379017 651.20403707 300.30652478 648 319 C647.6708526 321.09859508 647.34395519 323.19754453 647.01953125 325.296875 C646.13035955 330.88934505 645.10340389 336.44616537 644 342 C643.84515137 342.80179688 643.69030273 343.60359375 643.53076172 344.4296875 C630.11588528 412.12834007 593.53993678 480.88457217 543.94921875 529.05078125 C542.16137639 530.83862361 540.5434693 532.67458688 538.9375 534.625 C536.33178329 537.73345009 533.46849381 540.31301379 530.37890625 542.93359375 C528.03443582 544.97008777 525.77131784 547.07989149 523.51245117 549.21044922 C516.34815169 555.94640755 508.84559309 562.07803483 501 568 C500.40461426 568.4522998 499.80922852 568.90459961 499.19580078 569.37060547 C451.23081306 605.68271791 396.76107161 627.60835598 338 639 C337.13181641 639.17241211 336.26363281 639.34482422 335.36914062 639.52246094 C317.55109634 642.79399162 299.44490928 643.38175372 281.375 643.3125 C279.87796036 643.30976578 279.87796036 643.30976578 278.35067749 643.30697632 C262.06062175 643.25714673 246.11854576 642.5354455 230 640 C228.37118896 639.75056641 228.37118896 639.75056641 226.70947266 639.49609375 C155.18095546 628.22354179 88.71134746 596.06948395 35.81640625 546.62890625 C33.92717987 544.86545361 32.01784837 543.12331432 30.08984375 541.40234375 C6.37711514 520.18898047 -13.90100738 494.74474453 -31 468 C-31.37318359 467.41943848 -31.74636719 466.83887695 -32.13085938 466.24072266 C-47.30457152 442.51934246 -59.20951339 417.31712532 -68.92504883 390.91967773 C-69.61789711 389.03783066 -70.32016315 387.15941109 -71.03393555 385.28540039 C-73.79224846 377.95245531 -75.92911605 370.50725927 -77.9375 362.9375 C-78.10986176 362.28959503 -78.28222351 361.64169006 -78.45980835 360.97415161 C-81.95562386 347.76722227 -84.73736597 334.47539144 -87 321 C-87.15307617 320.09523926 -87.30615234 319.19047852 -87.46386719 318.25830078 C-102.53255285 227.08428695 -84.76157679 128.12197768 -19.27319336 24.86254883 C-13.13647359 16.3455883 -6.75251954 8.03871374 0 0 Z " fill="#3681BC" transform="translate(206,256)"/>
<path d="M0 0 C2 0 2 0 3.26953125 1.22265625 C3.77871094 1.82980469 4.28789062 2.43695313 4.8125 3.0625 C5.740625 4.15304687 5.740625 4.15304687 6.6875 5.265625 C7.450625 6.16796875 8.21375 7.0703125 9 8 C11.09796456 10.4428745 13.20468561 12.87812282 15.3125 15.3125 C15.87445068 15.96234863 16.43640137 16.61219727 17.01538086 17.28173828 C21.20986551 22.12036948 25.48617554 26.87282992 29.80859375 31.59765625 C32.26651587 34.2921698 34.69799478 37.00152644 37.0546875 39.78515625 C38.63886624 41.58882963 40.26097695 43.28888188 41.9453125 44.99609375 C49.83960464 53.24294172 49.83960464 53.24294172 50.2578125 57.82421875 C49.6875 60.5 49.6875 60.5 48.83984375 63.1796875 C46.01296052 72.67275585 47.68260929 83.8639117 52.1875 92.5625 C55.63686666 98.35864984 59.4200794 103.74523829 65.56884766 106.73573303 C68.20360391 108.62829867 68.91037135 109.61942381 69.66342163 112.81698418 C69.92941379 116.6027964 69.97002207 120.35837229 69.9375 124.15014648 C69.95026553 125.60913844 69.96597593 127.06810717 69.98440552 128.52703857 C70.02483244 132.4839913 70.02072467 136.4397268 70.00614166 140.39681506 C69.99793734 143.7020731 70.01132663 147.00710046 70.02465248 150.31233078 C70.05569552 158.11084672 70.05057212 165.90876461 70.02246094 173.70727539 C69.99405709 181.74847173 70.0239658 189.78794082 70.08308029 197.82893127 C70.13194939 204.73705148 70.14584313 211.64463228 70.1314888 218.55291039 C70.12319228 222.67709475 70.12780229 226.80021036 70.16552734 230.92425346 C70.1993821 234.80338182 70.18942008 238.67999635 70.1460228 242.55900574 C70.13733576 243.98036858 70.14391098 245.4019211 70.16705704 246.82312202 C70.32867632 257.58686306 70.32867632 257.58686306 67.009552 261.11697578 C64.73361275 262.62784961 62.44575266 263.79498359 60 265 C54.51977382 270.81107575 50.84072457 277.24039382 49 285 C48.773125 285.804375 48.54625 286.60875 48.3125 287.4375 C46.67418028 300.87172167 49.81634272 313.12940084 58 324 C66.58338474 332.68269663 76.42772242 337.19428562 88.5625 337.3125 C100.65384674 337.34949755 110.78246188 332.97066396 119.6875 324.8125 C128.37251797 315.71107706 130.52915756 304.11315012 130.24609375 291.94140625 C129.57314492 281.16354323 125.09910045 271.38786446 117 264.125 C114.6268539 262.15726636 112.78374637 260.9089591 109.90975952 259.69903564 C106.5169616 256.55194309 106.53389431 255.86971615 106.2784729 251.43182373 C106.26103381 249.03628055 106.27713232 246.64036061 106.31884766 244.24511719 C106.31753342 242.28377335 106.31753342 242.28377335 106.31619263 240.2828064 C106.31447105 236.70001777 106.34974456 233.11843436 106.39163637 229.53592587 C106.42914479 225.79104156 106.43266876 222.04612959 106.43978882 218.30108643 C106.45843755 211.21067648 106.50767423 204.12082161 106.56788576 197.0306561 C106.63495062 188.95824407 106.66793971 180.88580552 106.69805837 172.81318426 C106.76077386 156.20846456 106.86630856 139.60430312 107 123 C107.66 123 108.32 123 109 123 C110.30863371 124.47068414 111.5446856 126.00601318 112.75 127.5625 C116.64064174 132.4320774 120.72497501 137.02763518 125 141.5625 C125.60368408 142.2033252 126.20736816 142.84415039 126.8293457 143.50439453 C128.01124203 144.75860604 129.19328494 146.01267943 130.37548828 147.26660156 C135.77478677 153.02780074 141.02573602 158.93576666 146.15625 164.9375 C147.54089437 166.48642421 148.99034037 167.97780441 150.46875 169.4375 C151.3040625 170.283125 152.139375 171.12875 153 172 C154.175625 173.1446875 154.175625 173.1446875 155.375 174.3125 C157.29942997 177.4952111 157.05058786 179.26424516 156.38964844 182.85400391 C154.10492082 195.43718422 155.57673899 208.14180547 162.9140625 218.7734375 C169.39528023 226.62160297 178.77641684 233.38575003 189 235 C201.13647084 235.87499256 211.84634907 233.91545955 222 227 C222.77988281 226.12730469 223.55976563 225.25460937 224.36328125 224.35546875 C229.28640827 220.17761068 236.32148366 221.49016872 242.375 221.6875 C244.33759766 221.72133789 244.33759766 221.72133789 246.33984375 221.75585938 C249.56106887 221.81464086 252.7799432 221.89677269 256 222 C255.46632813 223.17691406 254.93265625 224.35382813 254.3828125 225.56640625 C253.62981526 227.23159314 252.87724789 228.89697446 252.125 230.5625 C251.72079834 231.45710937 251.31659668 232.35171875 250.90014648 233.2734375 C248.30834355 239.031451 245.78193773 244.81347409 243.29833984 250.61889648 C234.30643958 271.58164144 224.63173759 291.33593048 210 309 C209.16339844 310.0209375 208.32679688 311.041875 207.46484375 312.09375 C201.2514734 319.56500909 194.65044124 326.53249783 187.69555664 333.31860352 C187.05739014 333.94307373 186.41922363 334.56754395 185.76171875 335.2109375 C185.20444092 335.75024902 184.64716309 336.28956055 184.07299805 336.84521484 C182.26716417 338.72229526 180.57622911 340.64257709 178.88012695 342.61767578 C174.53485165 347.61300901 169.8579561 352.24875586 165.15625 356.90625 C163.7380835 358.31862932 162.31991993 359.73101161 160.90192413 361.14356232 C157.93933555 364.09312024 154.97215979 367.03806312 152.00579834 369.98382568 C149.55418969 372.41877106 147.10362669 374.85474816 144.65563965 377.29333496 C142.82931571 379.11220613 141.00074639 380.92882652 139.16955566 382.74279785 C134.85960403 387.03575588 130.73035609 391.3950357 126.76696777 396.00817871 C123.36001543 399.84867898 119.67907488 403.42150224 116.03125 407.03125 C114.77254089 408.28427917 114.77254089 408.28427917 113.48840332 409.56262207 C109.9314548 413.10336129 106.3685388 416.63807324 102.80615234 420.17333984 C100.19159836 422.7697206 97.58011816 425.36916566 94.96875 427.96875 C94.17376099 428.75544067 93.37877197 429.54213135 92.55969238 430.35266113 C87.82632544 435.06539242 83.32271219 439.90743625 79 445 C74.81707564 444.15432663 72.86158119 442.31766678 69.75 439.375 C68.85796875 438.53710938 67.9659375 437.69921875 67.046875 436.8359375 C66.32479858 436.1553125 66.32479858 436.1553125 65.58813477 435.4609375 C63.84549789 433.85787231 62.05734979 432.31686431 60.26171875 430.7734375 C48.2170501 420.2803435 36.69127345 408.71018204 27 396 C25.80890625 394.55173828 25.80890625 394.55173828 24.59375 393.07421875 C11.22869117 376.77304857 -0.43397075 358.77776111 -10 340 C-10.4738916 339.0713916 -10.9477832 338.1427832 -11.43603516 337.18603516 C-29.28536581 301.85983179 -41.05321646 264.55526438 -46.52539062 225.39575195 C-46.850605 223.06889665 -47.19397997 220.74452802 -47.55273438 218.42260742 C-49.22822925 206.75749608 -49.31452727 195.20734646 -49.25 183.4375 C-49.24656586 182.41576691 -49.24313171 181.39403381 -49.23959351 180.34133911 C-49.1822993 165.82287486 -49.08989649 151.39340119 -47 137 C-46.84402344 135.91154785 -46.68804687 134.8230957 -46.52734375 133.70166016 C-39.61658579 87.08603817 -24.0310244 40.7021991 0 0 Z " fill="#FDFEFE" transform="translate(218,331)"/>
<path d="M0 0 C1.18195953 -0.00181274 2.36391907 -0.00362549 3.58169556 -0.00549316 C17.36724155 -0.00309957 30.91277222 0.37721332 44.5625 2.375 C45.86147217 2.56239746 47.16044434 2.74979492 48.4987793 2.94287109 C52.23509254 3.5104909 55.96151864 4.11828139 59.6875 4.75 C60.33602936 4.85960052 60.98455872 4.96920105 61.65274048 5.0821228 C70.64287156 6.60918 79.53482355 8.20514014 88.30664062 10.72802734 C90.01343664 11.21753053 91.72371677 11.69490693 93.43554688 12.16650391 C131.34147697 22.62470613 168.31932798 38.63885505 200.5625 61.375 C201.09858887 61.74802246 201.63467773 62.12104492 202.18701172 62.50537109 C218.24896379 73.68427027 234.41465135 85.68731741 248.01171875 99.82421875 C249.68040059 101.49290059 251.44064932 102.98545188 253.25 104.5 C258.66028386 109.16584557 263.35674832 114.50449508 268.13574219 119.79980469 C269.39561344 121.19075084 270.66943281 122.56903572 271.9453125 123.9453125 C281.01149718 133.79138403 288.977321 144.50778498 296.9375 155.25 C297.52039795 156.03431396 298.1032959 156.81862793 298.70385742 157.62670898 C301.39447491 161.28332831 304.03215506 164.97239954 306.5390625 168.7578125 C307.16288818 169.69584717 307.16288818 169.69584717 307.79931641 170.65283203 C308.5625 172.375 308.5625 172.375 307.5625 175.375 C305.1484375 177.02563477 305.1484375 177.02563477 301.9375 178.81640625 C301.36281982 179.14077164 300.78813965 179.46513702 300.19604492 179.79933167 C298.32300646 180.85423697 296.44312303 181.89618544 294.5625 182.9375 C291.99827896 184.37063382 289.43669221 185.80844598 286.875 187.24609375 C286.24255371 187.59973999 285.61010742 187.95338623 284.95849609 188.31774902 C281.27998623 190.38170606 277.65226187 192.50629151 274.0625 194.72265625 C272.89847656 195.43796509 272.89847656 195.43796509 271.7109375 196.16772461 C270.31247442 197.03493063 268.92134111 197.91410757 267.5390625 198.80688477 C263.21077128 201.46812184 263.21077128 201.46812184 260.44140625 201.0703125 C257.55507581 198.46601435 255.60593979 195.37337525 253.5 192.125 C246.05366363 180.98501948 237.94283014 170.64035553 228.82421875 160.8203125 C226.8720112 158.7096356 224.98943722 156.56272443 223.125 154.375 C216.09962136 146.32954296 208.50338089 139.11525959 200.1484375 132.46875 C197.86080878 130.61653097 195.71356093 128.69402324 193.5625 126.6875 C181.46168245 115.85931745 167.76348251 106.79215619 153.75244141 98.64990234 C152.32267567 97.81754597 150.89760372 96.97705903 149.47802734 96.12744141 C117.60644241 77.05283796 81.84739797 65.93969339 45.4375 59.6875 C44.19822754 59.47254883 42.95895508 59.25759766 41.68212891 59.03613281 C27.08517925 56.62165788 12.51130235 56.13801584 -2.25 56.125 C-3.05331757 56.12399292 -3.85663513 56.12298584 -4.68429565 56.12194824 C-26.00409401 56.13987622 -46.64894357 58.6695607 -67.4375 63.375 C-68.70464844 63.64828125 -69.97179687 63.9215625 -71.27734375 64.203125 C-91.7386684 68.92662072 -111.5836143 76.18093804 -130.4375 85.375 C-131.30552246 85.79458984 -132.17354492 86.21417969 -133.06787109 86.64648438 C-142.40719962 91.17649038 -151.71077545 95.72559411 -160.4375 101.375 C-155.54712485 107.14313479 -150.50819155 112.76523161 -145.4375 118.375 C-143.95804256 120.02057196 -142.47887391 121.6664036 -141 123.3125 C-137.78427578 126.88739761 -134.55210091 130.44673123 -131.3125 134 C-127.89577861 137.75365539 -124.52391841 141.53932648 -121.1953125 145.37109375 C-119.23746415 147.60304087 -117.24500098 149.80120859 -115.25 152 C-111.63382582 156.00230803 -108.11742801 160.07783188 -104.625 164.1875 C-100.06959218 169.54182031 -95.38359194 174.7504156 -90.59326172 179.89501953 C-87.37430893 183.35249215 -84.22490695 186.85546484 -81.13671875 190.4296875 C-79.14343572 192.7116529 -77.10256973 194.94728574 -75.0625 197.1875 C-71.97113199 200.60729328 -69.01290968 204.09458524 -66.125 207.6875 C-62.23989058 212.49472963 -58.12040398 217.01221515 -53.8972168 221.51855469 C-49.84409482 225.86875393 -46.07333832 230.37721121 -42.375 235.03515625 C-40.46756133 237.42487142 -40.46756133 237.42487142 -38.1875 239.55859375 C-36.4375 241.375 -36.4375 241.375 -36.4375 243.375 C-35.179375 243.4575 -33.92125 243.54 -32.625 243.625 C-21.18792474 244.96737972 -10.84805484 250.06597712 -3.296875 258.87109375 C4.45831619 269.57521268 6.33972711 279.2341046 5.5625 292.375 C3.74010606 303.3865837 -2.67038556 313.54310145 -11.4375 320.375 C-23.07465978 327.43257669 -34.039901 330.15281312 -47.4375 327.25 C-57.8772742 324.37236993 -67.27366595 318.21936844 -72.97265625 308.8515625 C-74.24262706 306.38567165 -75.39773702 303.94619682 -76.4375 301.375 C-76.80746094 300.48039062 -77.17742187 299.58578125 -77.55859375 298.6640625 C-78.71417234 294.33963061 -78.6907968 290.32840444 -78.625 285.875 C-78.6240332 284.63169922 -78.6240332 284.63169922 -78.62304688 283.36328125 C-78.59709935 279.73639415 -78.54662713 276.74742536 -77.51953125 273.2421875 C-77.42137085 269.81124793 -77.97299333 269.31294317 -80.15625 266.7890625 C-81.39977921 265.50941141 -82.66128313 264.24705345 -83.9375 263 C-85.2455307 261.66478608 -86.55283155 260.32885676 -87.859375 258.9921875 C-88.80006836 258.04617676 -88.80006836 258.04617676 -89.75976562 257.08105469 C-91.64903158 255.15989775 -93.43691439 253.1730152 -95.1875 251.125 C-97.83477647 248.04537938 -100.56315782 245.05146375 -103.3125 242.0625 C-106.58279473 238.48238788 -109.71776617 234.84583763 -112.75 231.0625 C-117.38171018 225.3201666 -122.38573463 219.974357 -127.4296875 214.59765625 C-130.28602619 211.550367 -133.05333816 208.43663459 -135.78515625 205.27734375 C-141.75549362 198.40369293 -147.94891772 191.73020561 -154.13549805 185.05200195 C-157.32990095 181.59637332 -160.45369781 178.09155548 -163.53125 174.53125 C-166.12034958 171.60259638 -168.77944681 168.74101823 -171.4375 165.875 C-175.2030356 161.81485037 -178.90970026 157.72088598 -182.53125 153.53125 C-185.12035002 150.60259587 -187.77946234 147.74103327 -190.4375 144.875 C-194.22383906 140.79201127 -197.95517133 136.67730186 -201.59765625 132.46484375 C-204.00420156 129.73129441 -206.47053196 127.05385994 -208.9375 124.375 C-212.53640881 120.46655964 -216.07960554 116.51941313 -219.55859375 112.50390625 C-222.00012523 109.73751404 -224.4999535 107.0258582 -227 104.3125 C-230.90475453 100.0740001 -234.72822963 95.78602423 -238.4375 91.375 C-235.98627407 85.43143605 -230.37832018 82.19233271 -225.4375 78.375 C-224.72174805 77.818125 -224.00599609 77.26125 -223.26855469 76.6875 C-207.10211512 64.15935309 -190.24861247 53.16616186 -172.2890625 43.39111328 C-170.54662009 42.43488368 -168.81957815 41.45074324 -167.09375 40.46484375 C-140.55266307 25.64201195 -111.0017066 15.23084314 -81.4375 8.375 C-80.70740723 8.20162109 -79.97731445 8.02824219 -79.22509766 7.84960938 C-73.33017756 6.47528616 -67.4056195 5.37996126 -61.4375 4.375 C-60.37611816 4.19018066 -59.31473633 4.00536133 -58.22119141 3.81494141 C-38.82551595 0.57455483 -19.64158927 -0.00196055 0 0 Z " fill="#3581BC" transform="translate(487.4375,122.625)"/>
<path d="M0 0 C0 6.22194002 -7.23493065 11.28242106 -11.40234375 15.5 C-12.9114775 17.00260071 -14.42321854 18.50258715 -15.9375 20 C-17.10635742 21.16208984 -17.10635742 21.16208984 -18.29882812 22.34765625 C-20.1969242 24.23410757 -22.09733149 26.11816245 -24 28 C-24.66 27.67 -25.32 27.34 -26 27 C-20.6598723 20.68141883 -14.93902752 14.81843257 -9.0625 9 C-8.18787109 8.12988281 -7.31324219 7.25976562 -6.41210938 6.36328125 C-4.27702551 4.23986451 -2.13962795 2.11883622 0 0 Z " fill="#4B87B7" transform="translate(328,743)"/>
<path d="M0 0 C0 3 0 3 -2.44921875 5.70703125 C-3.52129005 6.74980371 -4.60108882 7.78467606 -5.6875 8.8125 C-9.73832811 12.6959792 -13.47647459 16.62664471 -17 21 C-17.33 20.01 -17.66 19.02 -18 18 C-12.06 12.06 -6.12 6.12 0 0 Z " fill="#3F7EB0" transform="translate(347,724)"/>
<path d="M0 0 C0.33 0.66 0.66 1.32 1 2 C-2.62934146 9.65265748 -7.60602007 16.50754999 -13 23 C-13.66 22.67 -14.32 22.34 -15 22 C-13.87851562 20.37191406 -13.87851562 20.37191406 -12.734375 18.7109375 C-11.73956039 17.2656408 -10.74477 15.82032741 -9.75 14.375 C-9.25886719 13.66214844 -8.76773438 12.94929687 -8.26171875 12.21484375 C-5.47475228 8.16445248 -2.71529395 4.09880087 0 0 Z " fill="#4C85B3" transform="translate(755,688)"/>
<path d="M0 0 C0.33 0 0.66 0 1 0 C1.05447822 2.52113092 1.09389852 5.0410585 1.125 7.5625 C1.14175781 8.26697266 1.15851562 8.97144531 1.17578125 9.69726562 C1.22022044 14.51891822 0.52768004 18.42297438 -1 23 C-1.33 23 -1.66 23 -2 23 C-1.85775413 20.47891897 -1.71129879 17.95819597 -1.5625 15.4375 C-1.52318359 14.73302734 -1.48386719 14.02855469 -1.44335938 13.30273438 C-1.17481721 8.8201459 -0.69383803 4.43706503 0 0 Z " fill="#4C86B4" transform="translate(803,537)"/>
<path d="M0 0 C0.33 0 0.66 0 1 0 C1.27897991 5.44010823 1.2154993 12.50962486 -2.57421875 16.76953125 C-3.27998047 17.37861328 -3.27998047 17.37861328 -4 18 C-2.28571429 2.28571429 -2.28571429 2.28571429 0 0 Z " fill="#548CB9" transform="translate(797,582)"/>
<path d="M0 0 C0 0.99 0 1.98 0 3 C-6.05073431 8.63818425 -6.05073431 8.63818425 -10 10 C-10.99 9.67 -11.98 9.34 -13 9 C-8.71 6.03 -4.42 3.06 0 0 Z " fill="#4C87B5" transform="translate(668,783)"/>
<path d="M0 0 C0.33 0.66 0.66 1.32 1 2 C0.26821134 4.07196631 -0.55899003 6.1108552 -1.4375 8.125 C-1.91058594 9.22070312 -2.38367188 10.31640625 -2.87109375 11.4453125 C-3.24363281 12.28835938 -3.61617188 13.13140625 -4 14 C-4.66 14 -5.32 14 -6 14 C-4.45941767 8.98491285 -2.97068161 4.3852919 0 0 Z " fill="#4E88B5" transform="translate(469,563)"/>
<path d="M0 0 C0.33 0.99 0.66 1.98 1 3 C-1.31 4.98 -3.62 6.96 -6 9 C-6 6 -6 6 -4.6875 4.39453125 C-4.130625 3.87246094 -3.57375 3.35039063 -3 2.8125 C-2.443125 2.28269531 -1.88625 1.75289062 -1.3125 1.20703125 C-0.6628125 0.60955078 -0.6628125 0.60955078 0 0 Z " fill="#5890BD" transform="translate(406,663)"/>
<path d="M0 0 C0.99 0.99 1.98 1.98 3 3 C1.02 4.32 -0.96 5.64 -3 7 C-3.66 6.67 -4.32 6.34 -5 6 C-3.35 4.02 -1.7 2.04 0 0 Z " fill="#4B86B6" transform="translate(206,256)"/>
<path d="M0 0 C3.34998521 1.11666174 3.79340222 1.74694925 5.6875 4.5625 C6.12449219 5.20316406 6.56148438 5.84382813 7.01171875 6.50390625 C7.33785156 6.99761719 7.66398437 7.49132812 8 8 C7.01 8.495 7.01 8.495 6 9 C4.99406757 7.8803014 3.9954151 6.7540588 3 5.625 C2.443125 4.99851562 1.88625 4.37203125 1.3125 3.7265625 C0 2 0 2 0 0 Z " fill="#4B86B5" transform="translate(442,356)"/>
<path d="M0 0 C0.99 0.33 1.98 0.66 3 1 C1.02 3.31 -0.96 5.62 -3 8 C-3.66 7.67 -4.32 7.34 -5 7 C-3.35 4.69 -1.7 2.38 0 0 Z " fill="#4A86B5" transform="translate(276,597)"/>
<path d="M0 0 C-1 3 -1 3 -2.8125 4.25 C-5.33943414 5.11637742 -6.52221994 4.88492145 -9 4 C-2.25 0 -2.25 0 0 0 Z " fill="#4D87B5" transform="translate(324,162)"/>
</svg>
